<svg width="35" height="36" viewBox="0 0 35 36" fill="none" xmlns="http://www.w3.org/2000/svg">
<g id="camera-square_svgrepo.com">
<path id="Vector" d="M17.5 23.8334C20.7216 23.8334 23.3333 21.2217 23.3333 18C23.3333 14.7784 20.7216 12.1667 17.5 12.1667C14.2783 12.1667 11.6666 14.7784 11.6666 18C11.6666 21.2217 14.2783 23.8334 17.5 23.8334Z" stroke="white" stroke-width="2.5"/>
<path id="Vector_2" d="M32.0833 18C32.0833 24.8746 32.0833 28.312 29.9476 30.4476C27.812 32.5834 24.3745 32.5834 17.5 32.5834C10.6253 32.5834 7.18798 32.5834 5.05231 30.4476C2.91663 28.312 2.91663 24.8746 2.91663 18C2.91663 11.1254 2.91663 7.68804 5.05231 5.55237C7.18798 3.41669 10.6253 3.41669 17.5 3.41669C24.3745 3.41669 27.812 3.41669 29.9476 5.55237C31.3677 6.97241 31.8435 8.96791 32.0029 12.1667" stroke="white" stroke-width="2.5" stroke-linecap="round"/>
</g>
</svg>
