<svg width="35" height="36" viewBox="0 0 35 36" fill="none" xmlns="http://www.w3.org/2000/svg">
<g id="history_svgrepo.com">
<path id="Vector" d="M17.5 12.1667V18L21.1458 21.6459" stroke="white" stroke-width="3.75" stroke-linecap="round" stroke-linejoin="round"/>
<path id="Vector_2" d="M6.32586 10.5195L5.23212 10.525C5.23514 11.1248 5.72059 11.6102 6.32036 11.6133L6.32586 10.5195ZM10.0326 11.6319C10.6367 11.635 11.1288 11.1477 11.1319 10.5437C11.1349 9.93961 10.6477 9.44747 10.0436 9.44443L10.0326 11.6319ZM7.40094 6.80176C7.39791 6.1977 6.90576 5.71049 6.3017 5.71352C5.69765 5.71655 5.21043 6.2087 5.21347 6.81275L7.40094 6.80176ZM5.58043 16.228C5.66246 15.6295 5.2438 15.0779 4.64533 14.9959C4.04687 14.9138 3.49522 15.3324 3.41318 15.9309L5.58043 16.228ZM27.5073 7.99259C21.9362 2.42148 12.9335 2.36506 7.39926 7.89931L8.94606 9.44611C13.6114 4.78074 21.2291 4.80785 25.9606 9.53939L27.5073 7.99259ZM7.49254 28.0074C13.0636 33.5785 22.0664 33.6349 27.6007 28.1007L26.0538 26.5539C21.3885 31.2192 13.7709 31.1922 9.03933 26.4607L7.49254 28.0074ZM27.6007 28.1007C33.1349 22.5665 33.0785 13.5637 27.5073 7.99259L25.9606 9.53939C30.6922 14.2709 30.7192 21.8885 26.0538 26.5539L27.6007 28.1007ZM7.39926 7.89931L5.55246 9.74612L7.09925 11.2929L8.94606 9.44611L7.39926 7.89931ZM6.32036 11.6133L10.0326 11.6319L10.0436 9.44443L6.33135 9.42578L6.32036 11.6133ZM7.41959 10.514L7.40094 6.80176L5.21347 6.81275L5.23212 10.525L7.41959 10.514ZM3.41318 15.9309C2.82777 20.2019 4.19109 24.706 7.49254 28.0074L9.03933 26.4607C6.23849 23.6598 5.08462 19.8451 5.58043 16.228L3.41318 15.9309Z" fill="white"/>
</g>
</svg>
