<svg width="35" height="35" viewBox="0 0 35 35" fill="none" xmlns="http://www.w3.org/2000/svg">
<g id="Vector">
<path id="Vector_2" d="M32.8768 9.85564C33.532 10.3544 34.0623 10.9846 34.4295 11.7009C34.7966 12.4172 34.9915 13.2017 35 13.9978L34.9814 28.0651C34.9814 29.8999 34.212 31.6595 32.8425 32.957C31.473 34.2545 29.6155 34.9837 27.6785 34.9841H24.4378C22.4859 34.9841 20.9009 33.4881 20.8916 31.6393V25.2884C20.8916 25.0526 20.7927 24.8264 20.6167 24.6597C20.4406 24.4929 20.2019 24.3992 19.9529 24.3992H15.0937C14.969 24.3992 14.8455 24.4227 14.7305 24.4684C14.6155 24.5141 14.5113 24.581 14.4239 24.6653C14.3365 24.7495 14.2677 24.8494 14.2215 24.9591C14.1754 25.0688 14.1527 25.1862 14.155 25.3043V27.7282C14.1415 28.0858 13.982 28.4244 13.7102 28.6729C13.4383 28.9213 13.0753 29.0602 12.6976 29.0602C12.3198 29.0602 11.9568 28.9213 11.685 28.6729C11.4131 28.4244 11.2537 28.0858 11.2402 27.7282V25.3043C11.2402 24.8228 11.3403 24.3461 11.5348 23.9014C11.7293 23.4566 12.0143 23.0525 12.3737 22.7121C12.7331 22.3717 13.1598 22.1016 13.6293 21.9174C14.0989 21.7332 14.6022 21.6384 15.1104 21.6384H19.9697C20.9935 21.6421 21.9741 22.03 22.6967 22.7171C23.4193 23.4041 23.825 24.3344 23.825 25.3043V31.6393C23.825 31.9621 24.0988 32.2215 24.4397 32.2215H27.7586C28.9181 32.2215 30.0302 31.7853 30.8502 31.0089C31.6703 30.2324 32.1313 29.1793 32.1318 28.081V14.0296C32.1258 13.6454 32.0299 13.2673 31.8508 12.9225C31.6717 12.5777 31.414 12.275 31.0962 12.0361L19.9045 3.58234C19.2202 3.04855 18.3613 2.75668 17.4749 2.75668C16.5884 2.75668 15.7295 3.04855 15.0452 3.58234L11.4506 6.128C11.1301 6.32568 10.7415 6.39873 10.3656 6.33195C9.98971 6.26518 9.65545 6.06371 9.43236 5.76947C9.20927 5.47522 9.11451 5.11084 9.16781 4.75212C9.2211 4.39339 9.41834 4.06793 9.7185 3.84343L13.2628 1.40362C14.4565 0.495186 15.9418 0 17.473 0C19.0042 0 20.4895 0.495186 21.6832 1.40362L32.8768 9.85564ZM7.30471 32.2074H14.7547V32.2373C15.1415 32.2373 15.5124 32.3829 15.7859 32.6419C16.0594 32.901 16.213 33.2523 16.213 33.6187C16.213 33.985 16.0594 34.3364 15.7859 34.5954C15.5124 34.8545 15.1415 35 14.7547 35H7.30471C5.36827 34.9963 3.51229 34.2659 2.14319 32.9687C0.774093 31.6716 0.00344512 29.9134 0 28.0793V14.0296C0.0126798 13.228 0.21583 12.4393 0.594366 11.7222C0.972904 11.0051 1.51711 10.378 2.18657 9.88739L3.53129 8.93475C3.83848 8.79754 4.18661 8.76619 4.51559 8.84612C4.84458 8.92604 5.1338 9.11222 5.33335 9.37253C5.53291 9.63285 5.63028 9.95097 5.60867 10.272C5.58706 10.5931 5.44783 10.8969 5.21499 11.1311L3.90379 12.052C3.59684 12.2938 3.34944 12.5963 3.17892 12.9382C3.0084 13.2801 2.91889 13.6532 2.91667 14.0314V28.0669C2.925 29.1655 3.39045 30.2166 4.21199 30.9922C5.03353 31.7677 6.14485 32.205 7.30471 32.2091V32.2074Z" fill="white"/>
</g>
</svg>
